<svg xmlns="http://www.w3.org/2000/svg" viewBox="0 0 200 200" width="100%" height="100%">
  <g transform="translate(18, 18) scale(0.82)" fill="none" stroke="currentColor" stroke-linecap="round" stroke-linejoin="round">
    <line x1="8" y1="172" x2="192" y2="172" stroke-width="8" />
    <path d="M 46 54 L 46 40 L 100 12 L 148 37" stroke-width="8" />
    <rect x="138" y="24" width="8" height="22" fill="currentColor" stroke="none" />
    <path d="M 22 172 L 22 84 L 72 54" stroke-width="8" />
    <polygon points="126,67 148,80 148,172 126,172" fill="currentColor" stroke="none" />
    <rect x="153" y="94" width="5.5" height="78" rx="2.5" fill="currentColor" stroke="none" />
    <rect x="163" y="103" width="5.5" height="69" rx="2.5" fill="currentColor" stroke="none" />
    <rect x="173" y="112" width="5.5" height="60" rx="2.5" fill="currentColor" stroke="none" />
    <line x1="100" y1="12" x2="100" y2="76" stroke-width="4.5" />
    <rect x="95" y="76" width="10" height="4" fill="currentColor" stroke="none" />
    <path d="M 86 94 C 86 80 114 80 114 94 Z" fill="currentColor" stroke="none" />
    <path d="M 84 94 Q 100 99 116 94 Q 100 92 84 94 Z" fill="#FFFFFF" stroke="none" />
    <polygon points="35,152 39,172 55,172 59,152" fill="currentColor" stroke="none" />
    <path d="M 47 152 Q 47 132 47 116" stroke-width="3" />
    <path d="M 47 122 Q 41 94 54 92 Q 57 110 47 122 Z" fill="currentColor" stroke="none" />
    <path d="M 47 136 Q 22 118 27 108 Q 45 116 47 136 Z" fill="currentColor" stroke="none" />
    <path d="M 47 142 Q 62 130 55 125 Q 46 133 47 142 Z" fill="currentColor" stroke="none" />
    <line x1="68" y1="150" x2="60" y2="172" stroke-width="5" />
    <line x1="104" y1="150" x2="112" y2="172" stroke-width="5" />
    <path d="M 62 124 C 60 110 70 106 85 106 C 104 106 124 113 124 128 C 124 140 112 147 90 147 C 67 147 62 139 62 124 Z" fill="currentColor" stroke="none" />
    <path d="M 68 124 C 70 134 76 139 94 139 C 110 139 116 134 116 128" stroke="#FFFFFF" stroke-width="3.5" stroke-linecap="round" fill="none" />
  </g>
</svg>