<svg xmlns="http://www.w3.org/2000/svg" viewBox="0 0 1400 700" width="1400" height="700" fill="none" stroke="#b0a090" stroke-width="1.2" stroke-linecap="round" stroke-linejoin="round">

  <!-- SOFA (left area) -->
  <g transform="translate(60, 320)">
    <!-- sofa base -->
    <rect x="0" y="40" width="220" height="60" rx="8"/>
    <!-- sofa back -->
    <rect x="10" y="10" width="200" height="38" rx="8"/>
    <!-- sofa left arm -->
    <rect x="0" y="20" width="22" height="80" rx="6"/>
    <!-- sofa right arm -->
    <rect x="198" y="20" width="22" height="80" rx="6"/>
    <!-- sofa legs -->
    <line x1="20" y1="100" x2="20" y2="118"/>
    <line x1="200" y1="100" x2="200" y2="118"/>
    <line x1="80" y1="100" x2="80" y2="112"/>
    <line x1="140" y1="100" x2="140" y2="112"/>
    <!-- cushions -->
    <rect x="25" y="44" width="58" height="32" rx="5"/>
    <rect x="90" y="44" width="58" height="32" rx="5"/>
    <rect x="155" y="44" width="55" height="32" rx="5"/>
  </g>

  <!-- ARMCHAIR (near sofa) -->
  <g transform="translate(320, 340)">
    <rect x="0" y="30" width="100" height="50" rx="6"/>
    <rect x="8" y="8" width="84" height="28" rx="6"/>
    <rect x="0" y="14" width="14" height="66" rx="5"/>
    <rect x="86" y="14" width="14" height="66" rx="5"/>
    <line x1="14" y1="80" x2="14" y2="96"/>
    <line x1="86" y1="80" x2="86" y2="96"/>
    <rect x="15" y="33" width="70" height="28" rx="4"/>
  </g>

  <!-- COFFEE TABLE -->
  <g transform="translate(110, 460)">
    <rect x="0" y="0" width="160" height="14" rx="3"/>
    <line x1="15" y1="14" x2="10" y2="44"/>
    <line x1="145" y1="14" x2="150" y2="44"/>
    <line x1="50" y1="14" x2="48" y2="44"/>
    <line x1="110" y1="14" x2="112" y2="44"/>
    <!-- items on table -->
    <ellipse cx="50" cy="6" rx="18" ry="5"/>
    <ellipse cx="100" cy="5" rx="12" ry="4"/>
    <rect x="120" y="2" width="20" height="10" rx="2"/>
  </g>

  <!-- CHANDELIER (top center) -->
  <g transform="translate(580, 10)">
    <line x1="80" y1="0" x2="80" y2="30"/>
    <ellipse cx="80" cy="38" rx="30" ry="12"/>
    <!-- arms -->
    <line x1="50" y1="38" x2="20" y2="60"/>
    <line x1="110" y1="38" x2="140" y2="60"/>
    <line x1="65" y1="35" x2="45" y2="58"/>
    <line x1="95" y1="35" x2="115" y2="58"/>
    <line x1="80" y1="50" x2="80" y2="70"/>
    <!-- bulbs -->
    <circle cx="20" cy="66" r="6"/>
    <circle cx="140" cy="66" r="6"/>
    <circle cx="45" cy="64" r="5"/>
    <circle cx="115" cy="64" r="5"/>
    <circle cx="80" cy="74" r="6"/>
    <!-- decorative rings -->
    <ellipse cx="80" cy="38" rx="18" ry="7"/>
    <ellipse cx="80" cy="44" rx="8" ry="4"/>
    <!-- chain links -->
    <ellipse cx="80" cy="10" rx="4" ry="5"/>
    <ellipse cx="80" cy="20" rx="4" ry="5"/>
  </g>

  <!-- WARDROBE (right area) -->
  <g transform="translate(1100, 200)">
    <rect x="0" y="0" width="180" height="280" rx="4"/>
    <!-- door divider -->
    <line x1="90" y1="0" x2="90" y2="280"/>
    <!-- top shelf line -->
    <line x1="0" y1="60" x2="180" y2="60"/>
    <!-- handles -->
    <circle cx="76" cy="145" r="5"/>
    <circle cx="104" cy="145" r="5"/>
    <!-- decorative panel top left -->
    <rect x="10" y="70" width="70" height="100" rx="3"/>
    <!-- decorative panel top right -->
    <rect x="100" y="70" width="70" height="100" rx="3"/>
    <!-- bottom panels -->
    <rect x="10" y="180" width="70" height="88" rx="3"/>
    <rect x="100" y="180" width="70" height="88" rx="3"/>
    <!-- feet -->
    <rect x="10" y="278" width="20" height="12" rx="2"/>
    <rect x="150" y="278" width="20" height="12" rx="2"/>
  </g>

  <!-- FLOOR LAMP (far right) -->
  <g transform="translate(1310, 180)">
    <!-- shade -->
    <path d="M15,0 L0,40 L60,40 Z"/>
    <ellipse cx="30" cy="40" rx="30" ry="6"/>
    <!-- pole -->
    <line x1="30" y1="46" x2="30" y2="250"/>
    <!-- base -->
    <ellipse cx="30" cy="256" rx="28" ry="8"/>
    <ellipse cx="30" cy="260" rx="22" ry="5"/>
  </g>

  <!-- DINING TABLE + CHAIRS -->
  <g transform="translate(450, 480)">
    <!-- table top -->
    <rect x="0" y="30" width="280" height="16" rx="4"/>
    <!-- table legs -->
    <line x1="20" y1="46" x2="15" y2="90"/>
    <line x1="260" y1="46" x2="265" y2="90"/>
    <line x1="80" y1="46" x2="78" y2="90"/>
    <line x1="200" y1="46" x2="202" y2="90"/>
    <!-- chair left 1 -->
    <rect x="-40" y="40" width="35" height="8" rx="3"/>
    <rect x="-38" y="10" width="31" height="32" rx="3"/>
    <line x1="-36" y1="48" x2="-38" y2="68"/>
    <line x1="-8" y1="48" x2="-6" y2="68"/>
    <!-- chair left 2 -->
    <rect x="-40" y="100" width="35" height="8" rx="3"/>
    <rect x="-38" y="70" width="31" height="32" rx="3"/>
    <line x1="-36" y1="108" x2="-38" y2="128"/>
    <line x1="-8" y1="108" x2="-6" y2="128"/>
    <!-- chair right 1 -->
    <rect x="285" y="40" width="35" height="8" rx="3"/>
    <rect x="287" y="10" width="31" height="32" rx="3"/>
    <line x1="289" y1="48" x2="287" y2="68"/>
    <line x1="317" y1="48" x2="319" y2="68"/>
    <!-- chair right 2 -->
    <rect x="285" y="100" width="35" height="8" rx="3"/>
    <rect x="287" y="70" width="31" height="32" rx="3"/>
    <line x1="289" y1="108" x2="287" y2="128"/>
    <line x1="317" y1="108" x2="319" y2="128"/>
  </g>

  <!-- BED -->
  <g transform="translate(720, 260)">
    <!-- mattress -->
    <rect x="0" y="50" width="260" height="160" rx="6"/>
    <!-- headboard -->
    <rect x="0" y="0" width="260" height="58" rx="8"/>
    <!-- headboard detail -->
    <rect x="15" y="10" width="80" height="38" rx="5"/>
    <rect x="105" y="10" width="50" height="38" rx="5"/>
    <rect x="165" y="10" width="80" height="38" rx="5"/>
    <!-- pillows -->
    <rect x="15" y="58" width="100" height="55" rx="8"/>
    <rect x="145" y="58" width="100" height="55" rx="8"/>
    <!-- blanket fold -->
    <path d="M0,130 Q130,120 260,130 L260,210 Q130,215 0,210 Z"/>
    <!-- legs -->
    <line x1="15" y1="210" x2="12" y2="228"/>
    <line x1="245" y1="210" x2="248" y2="228"/>
  </g>

  <!-- BEDSIDE TABLE LEFT -->
  <g transform="translate(680, 350)">
    <rect x="0" y="0" width="50" height="60" rx="3"/>
    <line x1="0" y1="25" x2="50" y2="25"/>
    <circle cx="25" cy="14" r="3"/>
    <circle cx="25" cy="40" r="3"/>
    <line x1="8" y1="60" x2="6" y2="75"/>
    <line x1="42" y1="60" x2="44" y2="75"/>
    <!-- lamp on table -->
    <line x1="25" y1="0" x2="25" y2="-30"/>
    <path d="M10,-50 L40,-50 L35,-30 L15,-30 Z"/>
  </g>

  <!-- BEDSIDE TABLE RIGHT -->
  <g transform="translate(1000, 350)">
    <rect x="0" y="0" width="50" height="60" rx="3"/>
    <line x1="0" y1="25" x2="50" y2="25"/>
    <circle cx="25" cy="14" r="3"/>
    <circle cx="25" cy="40" r="3"/>
    <line x1="8" y1="60" x2="6" y2="75"/>
    <line x1="42" y1="60" x2="44" y2="75"/>
  </g>

  <!-- DECORATIVE VASE (left bottom) -->
  <g transform="translate(40, 490)">
    <path d="M25,80 Q5,60 10,30 Q15,5 30,0 Q45,5 50,30 Q55,60 35,80 Z"/>
    <ellipse cx="30" cy="80" rx="22" ry="6"/>
    <ellipse cx="30" cy="0" rx="12" ry="4"/>
    <!-- flowers/stems -->
    <line x1="30" y1="0" x2="20" y2="-40"/>
    <line x1="30" y1="0" x2="30" y2="-55"/>
    <line x1="30" y1="0" x2="42" y2="-38"/>
    <circle cx="20" cy="-44" r="8"/>
    <circle cx="30" cy="-60" r="10"/>
    <circle cx="42" cy="-42" r="7"/>
  </g>

  <!-- BOOKSHELF (top left) -->
  <g transform="translate(60, 80)">
    <rect x="0" y="0" width="130" height="200" rx="3"/>
    <!-- shelves -->
    <line x1="0" y1="50" x2="130" y2="50"/>
    <line x1="0" y1="100" x2="130" y2="100"/>
    <line x1="0" y1="150" x2="130" y2="150"/>
    <!-- books row 1 -->
    <rect x="8" y="8" width="12" height="40"/>
    <rect x="22" y="12" width="10" height="36"/>
    <rect x="34" y="6" width="14" height="42"/>
    <rect x="50" y="10" width="11" height="38"/>
    <rect x="63" y="8" width="9" height="40"/>
    <rect x="74" y="14" width="13" height="34"/>
    <rect x="89" y="8" width="10" height="40"/>
    <rect x="101" y="11" width="12" height="37"/>
    <!-- books row 2 -->
    <rect x="8" y="58" width="11" height="38"/>
    <rect x="21" y="54" width="13" height="42"/>
    <rect x="36" y="60" width="10" height="36"/>
    <rect x="48" y="56" width="14" height="40"/>
    <rect x="64" y="58" width="9" height="38"/>
    <rect x="75" y="54" width="12" height="42"/>
    <rect x="89" y="60" width="10" height="36"/>
    <!-- decor on shelf 3 -->
    <rect x="10" y="108" width="20" height="30" rx="2"/>
    <ellipse cx="50" cy="118" rx="12" ry="18"/>
    <rect x="75" y="110" width="40" height="28" rx="2"/>
    <!-- bottom decor -->
    <rect x="8" y="158" width="15" height="38" rx="2"/>
    <rect x="25" y="162" width="12" height="34" rx="2"/>
    <rect x="39" y="158" width="18" height="38" rx="2"/>
    <circle cx="75" cy="168" r="12"/>
    <rect x="95" y="160" width="25" height="36" rx="2"/>
  </g>

  <!-- KITCHEN UNIT (bottom center-right) -->
  <g transform="translate(820, 520)">
    <rect x="0" y="0" width="240" height="80" rx="4"/>
    <!-- countertop -->
    <rect x="-5" y="-8" width="250" height="12" rx="3"/>
    <!-- cabinet doors -->
    <line x1="80" y1="0" x2="80" y2="80"/>
    <line x1="160" y1="0" x2="160" y2="80"/>
    <!-- handles -->
    <line x1="60" y1="35" x2="70" y2="35"/>
    <line x1="120" y1="35" x2="130" y2="35"/>
    <line x1="200" y1="35" x2="210" y2="35"/>
    <!-- upper cabinets -->
    <rect x="0" y="-90" width="240" height="70" rx="4"/>
    <line x1="80" y1="-90" x2="80" y2="-20"/>
    <line x1="160" y1="-90" x2="160" y2="-20"/>
    <!-- upper handles -->
    <line x1="60" y1="-55" x2="70" y2="-55"/>
    <line x1="120" y1="-55" x2="130" y2="-55"/>
    <line x1="200" y1="-55" x2="210" y2="-55"/>
    <!-- sink -->
    <rect x="100" y="-6" width="70" height="8" rx="2"/>
    <ellipse cx="135" cy="-2" rx="28" ry="4"/>
  </g>

  <!-- MIRROR (right side) -->
  <g transform="translate(1250, 80)">
    <ellipse cx="60" cy="70" rx="55" ry="65"/>
    <ellipse cx="60" cy="70" rx="48" ry="58"/>
    <!-- frame detail -->
    <ellipse cx="60" cy="70" rx="52" ry="61"/>
    <!-- hanging cord -->
    <line x1="30" y1="9" x2="20" y2="-15"/>
    <line x1="90" y1="9" x2="100" y2="-15"/>
    <line x1="20" y1="-15" x2="60" y2="-22"/>
    <line x1="100" y1="-15" x2="60" y2="-22"/>
    <line x1="60" y1="-22" x2="60" y2="-35"/>
  </g>

  <!-- WALL ART FRAMES (top right) -->
  <g transform="translate(870, 60)">
    <rect x="0" y="0" width="100" height="75" rx="3"/>
    <rect x="8" y="8" width="84" height="59" rx="2"/>
    <!-- art content lines -->
    <line x1="15" y1="20" x2="85" y2="20"/>
    <line x1="20" y1="35" x2="80" y2="35"/>
    <line x1="25" y1="50" x2="75" y2="50"/>
  </g>
  <g transform="translate(990, 50)">
    <rect x="0" y="0" width="80" height="90" rx="3"/>
    <rect x="7" y="7" width="66" height="76" rx="2"/>
    <circle cx="40" cy="40" r="22"/>
    <path d="M20,65 Q40,50 60,65"/>
  </g>

  <!-- PLANT (bottom left area) -->
  <g transform="translate(290, 460)">
    <!-- pot -->
    <path d="M15,60 L5,90 L55,90 L45,60 Z"/>
    <ellipse cx="30" cy="60" rx="18" ry="6"/>
    <ellipse cx="30" cy="90" rx="26" ry="7"/>
    <!-- soil -->
    <ellipse cx="30" cy="60" rx="16" ry="5"/>
    <!-- stems -->
    <path d="M30,58 Q10,30 0,10" fill="none"/>
    <path d="M30,58 Q25,20 30,-5" fill="none"/>
    <path d="M30,58 Q50,25 60,5" fill="none"/>
    <path d="M30,58 Q55,40 70,35" fill="none"/>
    <!-- leaves -->
    <ellipse cx="0" cy="8" rx="14" ry="8" transform="rotate(-30, 0, 8)"/>
    <ellipse cx="30" cy="-8" rx="12" ry="7" transform="rotate(10, 30, -8)"/>
    <ellipse cx="62" cy="3" rx="13" ry="7" transform="rotate(40, 62, 3)"/>
    <ellipse cx="72" cy="32" rx="12" ry="6" transform="rotate(20, 72, 32)"/>
  </g>

  <!-- PENDANT LIGHT (center top) -->
  <g transform="translate(380, 0)">
    <line x1="30" y1="0" x2="30" y2="35"/>
    <path d="M5,35 Q30,55 55,35" fill="none"/>
    <path d="M8,35 L5,80 L55,80 L52,35" fill="none"/>
    <ellipse cx="30" cy="80" rx="27" ry="7"/>
    <ellipse cx="30" cy="35" rx="27" ry="7"/>
  </g>

  <!-- CURTAIN (far left) -->
  <g transform="translate(0, 0)">
    <line x1="0" y1="0" x2="50" y2="0"/>
    <path d="M5,0 Q0,80 8,160 Q15,240 5,320" fill="none"/>
    <path d="M20,0 Q25,80 18,160 Q12,240 22,320" fill="none"/>
    <path d="M35,0 Q30,80 38,160 Q45,240 35,320" fill="none"/>
    <path d="M50,0 Q55,80 48,160 Q42,240 50,320" fill="none"/>
    <!-- curtain rod rings -->
    <circle cx="5" cy="3" r="3"/>
    <circle cx="15" cy="2" r="3"/>
    <circle cx="25" cy="3" r="3"/>
    <circle cx="35" cy="2" r="3"/>
    <circle cx="45" cy="3" r="3"/>
  </g>

  <!-- SIDE TABLE / END TABLE -->
  <g transform="translate(440, 380)">
    <ellipse cx="35" cy="0" rx="35" ry="10"/>
    <line x1="35" y1="10" x2="35" y2="70"/>
    <ellipse cx="35" cy="72" rx="28" ry="7"/>
    <!-- item on table -->
    <rect x="18" y="-15" width="14" height="18" rx="2"/>
    <circle cx="25" cy="-18" r="7"/>
  </g>

  <!-- DECORATIVE FRAME / TV CONSOLE -->
  <g transform="translate(730, 530)">
    <rect x="0" y="0" width="170" height="40" rx="4"/>
    <line x1="0" y1="18" x2="170" y2="18"/>
    <!-- legs -->
    <line x1="20" y1="40" x2="18" y2="58"/>
    <line x1="150" y1="40" x2="152" y2="58"/>
    <line x1="65" y1="40" x2="64" y2="54"/>
    <line x1="105" y1="40" x2="106" y2="54"/>
    <!-- drawer handles -->
    <line x1="75" y1="8" x2="95" y2="8"/>
    <line x1="75" y1="28" x2="95" y2="28"/>
  </g>

</svg>
